<svg width="19" height="14" viewBox="0 0 19 14" fill="none" xmlns="http://www.w3.org/2000/svg">
<path d="M18.5409 8.0371C18.8349 7.76205 19 7.38922 19 7.00049C19 6.61176 18.8349 6.23893 18.5409 5.96388L12.6219 0.429781C12.3274 0.154597 11.928 -3.13227e-07 11.5115 -3.27331e-07C11.0951 -3.41434e-07 10.6957 0.154597 10.4012 0.429781C10.1067 0.704965 9.94129 1.07819 9.94129 1.46736C9.94129 1.85653 10.1067 2.22976 10.4012 2.50495L13.6412 5.5336L1.56976 5.53359C1.15343 5.53359 0.754158 5.68814 0.459772 5.96324C0.165384 6.23833 -2.88995e-07 6.61144 -3.06001e-07 7.00049C-3.23007e-07 7.38953 0.165384 7.76264 0.459772 8.03774C0.754158 8.31284 1.15343 8.46738 1.56976 8.46738L13.6412 8.46738L10.4012 11.4951C10.2554 11.6313 10.1397 11.7931 10.0608 11.9711C9.98191 12.1491 9.94129 12.3399 9.94129 12.5326C9.94129 12.7253 9.98191 12.9161 10.0608 13.0942C10.1397 13.2722 10.2554 13.434 10.4012 13.5702C10.547 13.7065 10.7201 13.8146 10.9106 13.8883C11.1011 13.962 11.3053 14 11.5115 14C11.7178 14 11.9219 13.962 12.1125 13.8883C12.303 13.8146 12.4761 13.7065 12.6219 13.5702L18.5409 8.0371Z" fill="#1E1E2E" fill-opacity="0.5"/>
</svg>
