<svg width="10" height="10" viewBox="0 0 10 10" fill="none" xmlns="http://www.w3.org/2000/svg">
<path d="M-0.25 -2H10.25C11.216 -2 12 -1.216 12 -0.25V10.25C12 10.7141 11.8156 11.1592 11.4874 11.4874C11.1592 11.8156 10.7141 12 10.25 12H-0.25C-0.71413 12 -1.15925 11.8156 -1.48744 11.4874C-1.81563 11.1592 -2 10.7141 -2 10.25V-0.25C-2 -1.216 -1.216 -2 -0.25 -2ZM-0.5 -0.25V10.25C-0.5 10.388 -0.388 10.5 -0.25 10.5H10.25C10.3163 10.5 10.3799 10.4737 10.4268 10.4268C10.4737 10.3799 10.5 10.3163 10.5 10.25V-0.25C10.5 -0.3163 10.4737 -0.37989 10.4268 -0.42678C10.3799 -0.47366 10.3163 -0.5 10.25 -0.5H-0.25C-0.3163 -0.5 -0.37989 -0.47366 -0.42678 -0.42678C-0.47366 -0.37989 -0.5 -0.3163 -0.5 -0.25ZM8.78 3.28L4.28 7.78C4.13937 7.92045 3.94875 7.99934 3.75 7.99934C3.55125 7.99934 3.36063 7.92045 3.22 7.78L1.22 5.78C1.08759 5.63774 1.01549 5.44969 1.01884 5.25537C1.0222 5.06105 1.10076 4.8756 1.238 4.738C1.3756 4.60076 1.56105 4.5222 1.75537 4.51884C1.94969 4.51549 2.13774 4.58759 2.28 4.72L3.75 6.19L7.72 2.22C7.86226 2.08759 8.0503 2.01549 8.2446 2.01884C8.4389 2.0222 8.6244 2.10076 8.762 2.238C8.8992 2.3756 8.9778 2.56105 8.9812 2.75537C8.9845 2.94969 8.9124 3.13774 8.78 3.28Z" fill="white"/>
</svg>
