<svg width="14" height="14" viewBox="0 0 14 14" fill="none" xmlns="http://www.w3.org/2000/svg">
<path d="M1.75 0H12.25C13.216 0 14 0.784 14 1.75V12.25C14 12.7141 13.8156 13.1592 13.4874 13.4874C13.1592 13.8156 12.7141 14 12.25 14H1.75C1.28587 14 0.840752 13.8156 0.512563 13.4874C0.184374 13.1592 0 12.7141 0 12.25V1.75C0 0.784 0.784 0 1.75 0ZM1.5 1.75V12.25C1.5 12.388 1.612 12.5 1.75 12.5H12.25C12.3163 12.5 12.3799 12.4737 12.4268 12.4268C12.4737 12.3799 12.5 12.3163 12.5 12.25V1.75C12.5 1.6837 12.4737 1.62011 12.4268 1.57322C12.3799 1.52634 12.3163 1.5 12.25 1.5H1.75C1.6837 1.5 1.62011 1.52634 1.57322 1.57322C1.52634 1.62011 1.5 1.6837 1.5 1.75ZM10.78 5.28L6.28 9.78C6.13937 9.92045 5.94875 9.99934 5.75 9.99934C5.55125 9.99934 5.36063 9.92045 5.22 9.78L3.22 7.78C3.08759 7.63774 3.01549 7.44969 3.01884 7.25537C3.0222 7.06105 3.10076 6.8756 3.238 6.738C3.3756 6.60076 3.56105 6.5222 3.75537 6.51884C3.94969 6.51549 4.13774 6.58759 4.28 6.72L5.75 8.19L9.72 4.22C9.86226 4.08759 10.0503 4.01549 10.2446 4.01884C10.4389 4.0222 10.6244 4.10076 10.762 4.238C10.8992 4.3756 10.9778 4.56105 10.9812 4.75537C10.9845 4.94969 10.9124 5.13774 10.78 5.28Z" fill="white"/>
</svg>
