<svg width="15" height="18" viewBox="0 0 15 18" fill="none" xmlns="http://www.w3.org/2000/svg">
<path d="M12.4179 6.35294H10.7143V1.05882C10.7143 0.476471 10.2321 0 9.64286 0H5.35714C4.76786 0 4.28571 0.476471 4.28571 1.05882V6.35294H2.58214C1.62857 6.35294 1.14643 7.49647 1.82143 8.16353L6.73929 13.0235C7.15714 13.4365 7.83214 13.4365 8.25 13.0235L13.1679 8.16353C13.8429 7.49647 13.3714 6.35294 12.4179 6.35294ZM0 16.9412C0 17.5235 0.482143 18 1.07143 18H13.9286C14.5179 18 15 17.5235 15 16.9412C15 16.3588 14.5179 15.8824 13.9286 15.8824H1.07143C0.482143 15.8824 0 16.3588 0 16.9412Z" fill="white"/>
</svg>
