<svg width="22" height="20" viewBox="0 0 22 20" fill="none" xmlns="http://www.w3.org/2000/svg">
<path d="M3.14286 2.79921H18.8571C19.0407 2.79912 19.2241 2.81098 19.4062 2.83471C19.3444 2.39358 19.1956 1.96974 18.9687 1.58875C18.7418 1.20776 18.4414 0.877512 18.0857 0.617915C17.73 0.358317 17.3264 0.174748 16.8992 0.0782755C16.472 -0.018197 16.03 -0.0255748 15.5999 0.0565868L2.67634 2.30319H2.66161C1.85039 2.46115 1.129 2.92848 0.644777 3.60975C1.37431 3.08139 2.2476 2.79804 3.14286 2.79921ZM18.8571 3.99927H3.14286C2.3096 4.00019 1.51073 4.33765 0.921526 4.93759C0.332323 5.53753 0.000909884 6.35097 0 7.19941V16.7999C0.000909884 17.6483 0.332323 18.4617 0.921526 19.0617C1.51073 19.6616 2.3096 19.9991 3.14286 20H18.8571C19.6904 19.9991 20.4893 19.6616 21.0785 19.0617C21.6677 18.4617 21.9991 17.6483 22 16.7999V7.19941C21.9991 6.35097 21.6677 5.53753 21.0785 4.93759C20.4893 4.33765 19.6904 4.00019 18.8571 3.99927ZM16.5246 13.5997C16.2138 13.5997 15.9099 13.5059 15.6515 13.33C15.3931 13.1542 15.1917 12.9043 15.0727 12.612C14.9538 12.3196 14.9227 11.9979 14.9833 11.6875C15.044 11.3771 15.1936 11.092 15.4134 10.8682C15.6332 10.6444 15.9132 10.492 16.218 10.4303C16.5228 10.3686 16.8388 10.4003 17.1259 10.5214C17.4131 10.6425 17.6585 10.8475 17.8311 11.1107C18.0038 11.3738 18.096 11.6832 18.096 11.9996C18.096 12.424 17.9304 12.831 17.6357 13.1311C17.341 13.4311 16.9413 13.5997 16.5246 13.5997Z" fill="#1E1E2E" fill-opacity="0.5"/>
</svg>
