<svg width="24" height="24" viewBox="0 0 24 24" fill="none" xmlns="http://www.w3.org/2000/svg">
<circle cx="12" cy="12" r="12" fill="#D9D9D9"/>
<path d="M3.11835 19.5919C4.26094 17.7442 6.04509 16.3045 8.18358 15.5045C7.12013 14.7696 6.33459 13.745 5.93823 12.5759C5.54187 11.4068 5.55479 10.1524 5.97515 8.99039C6.39552 7.8284 7.20202 6.81774 8.28042 6.10156C9.35882 5.38538 10.6544 5 11.9838 5C13.3131 5 14.6087 5.38538 15.6871 6.10156C16.7655 6.81774 17.572 7.8284 17.9924 8.99039C18.4127 10.1524 18.4256 11.4068 18.0293 12.5759C17.6329 13.745 16.8474 14.7696 15.7839 15.5045C17.9224 16.3045 19.7066 17.7442 20.8492 19.5919C20.92 19.6968 20.9672 19.8138 20.9879 19.9358C21.0087 20.0578 21.0026 20.1825 20.9701 20.3023C20.9375 20.4221 20.8792 20.5347 20.7984 20.6333C20.7177 20.7319 20.6163 20.8146 20.5002 20.8764C20.3842 20.9382 20.2558 20.9779 20.1227 20.993C19.9897 21.0082 19.8547 20.9986 19.7258 20.9647C19.5968 20.9308 19.4766 20.8734 19.3723 20.7959C19.2679 20.7184 19.1815 20.6223 19.1183 20.5134C17.6082 18.1084 14.9414 16.674 11.9838 16.674C9.02612 16.674 6.35933 18.1092 4.84926 20.5134C4.71216 20.7165 4.49471 20.8625 4.24287 20.9206C3.99103 20.9787 3.72455 20.9443 3.49976 20.8246C3.27497 20.7049 3.1095 20.5094 3.03832 20.2794C2.96715 20.0493 2.99584 19.8028 3.11835 19.5919ZM16.3173 10.8382C16.3173 10.0484 16.0631 9.27643 15.587 8.61979C15.1108 7.96315 14.434 7.45136 13.6421 7.14915C12.8503 6.84693 11.979 6.76786 11.1383 6.92193C10.2977 7.076 9.52554 7.45629 8.91949 8.01471C8.31343 8.57313 7.9007 9.28461 7.73349 10.0592C7.56628 10.8337 7.6521 11.6366 7.9801 12.3662C8.30809 13.0958 8.86353 13.7194 9.57618 14.1582C10.2888 14.5969 11.1267 14.8311 11.9838 14.8311C13.1327 14.8299 14.2342 14.4088 15.0466 13.6602C15.859 12.9117 16.316 11.8968 16.3173 10.8382Z" fill="white"/>
</svg>
