<svg width="21" height="17" viewBox="0 0 21 17" fill="none" xmlns="http://www.w3.org/2000/svg">
<path d="M0 14.2955C0 15.0127 0.276562 15.7007 0.768845 16.2079C1.26113 16.7151 1.92881 17 2.625 17H18.375C19.0712 17 19.7389 16.7151 20.2312 16.2079C20.7234 15.7007 21 15.0127 21 14.2955V6.85795H0V14.2955ZM3.09375 10.625C3.09375 10.2407 3.24191 9.87221 3.50563 9.6005C3.76935 9.32878 4.12704 9.17614 4.5 9.17614H6.75C7.12296 9.17614 7.48065 9.32878 7.74437 9.6005C8.00809 9.87221 8.15625 10.2407 8.15625 10.625V11.5909C8.15625 11.9752 8.00809 12.3437 7.74437 12.6154C7.48065 12.8871 7.12296 13.0398 6.75 13.0398H4.5C4.12704 13.0398 3.76935 12.8871 3.50563 12.6154C3.24191 12.3437 3.09375 11.9752 3.09375 11.5909V10.625ZM18.375 0H2.625C1.92881 0 1.26113 0.284943 0.768845 0.792143C0.276562 1.29934 0 1.98726 0 2.70455V3.96023H21V2.70455C21 1.98726 20.7234 1.29934 20.2312 0.792143C19.7389 0.284943 19.0712 0 18.375 0Z" fill="#1E1E2E" fill-opacity="0.5"/>
</svg>
