<svg width="15" height="15" viewBox="0 0 15 15" fill="none" xmlns="http://www.w3.org/2000/svg">
<path d="M14.4063 13.6551L10.3943 9.64306C11.3584 8.48564 11.8391 7.00107 11.7366 5.4982C11.634 3.99533 10.9559 2.58986 9.84349 1.57418C8.73104 0.558497 7.26985 0.0107962 5.76387 0.0450148C4.25789 0.0792335 2.82308 0.692737 1.75792 1.7579C0.692752 2.82306 0.0792488 4.25787 0.0450301 5.76385C0.0108114 7.26983 0.558512 8.73103 1.5742 9.84347C2.58988 10.9559 3.99534 11.634 5.49821 11.7365C7.00108 11.8391 8.48565 11.3584 9.64308 10.3943L13.6551 14.4063L14.4063 13.6551ZM1.12502 5.90625C1.12502 4.96061 1.40543 4.0362 1.9308 3.24993C2.45617 2.46366 3.2029 1.85083 4.07656 1.48895C4.95022 1.12707 5.91157 1.03239 6.83904 1.21687C7.76651 1.40136 8.61845 1.85673 9.28712 2.5254C9.95579 3.19407 10.4112 4.046 10.5956 4.97347C10.7801 5.90095 10.6854 6.8623 10.3236 7.73596C9.96168 8.60961 9.34886 9.35634 8.56259 9.88171C7.77631 10.4071 6.85191 10.6875 5.90627 10.6875C4.63863 10.6861 3.42332 10.1819 2.52696 9.28555C1.63061 8.3892 1.12642 7.17388 1.12502 5.90625Z" fill="#1E1E2E"/>
</svg>
